<svg width="124" height="82" viewBox="0 0 124 82" fill="none" xmlns="http://www.w3.org/2000/svg">
<path d="M14.9927 59.2266L25.1338 26.5459H31.8047L17.1826 68.6265C16.8457 69.5249 16.3965 70.4907 15.835 71.5239C15.2959 72.5796 14.5996 73.5791 13.7461 74.5225C12.8926 75.4658 11.8594 76.2295 10.6465 76.8135C9.45605 77.4199 8.02979 77.7231 6.36768 77.7231C5.87354 77.7231 5.24463 77.6558 4.48096 77.521C3.71729 77.3862 3.17822 77.2739 2.86377 77.1841L2.83008 72.1304C3.00977 72.1528 3.29053 72.1753 3.67236 72.1978C4.07666 72.2427 4.35742 72.2651 4.51465 72.2651C5.92969 72.2651 7.13135 72.0742 8.11963 71.6924C9.10791 71.333 9.93896 70.7153 10.6128 69.8394C11.3091 68.9858 11.9043 67.8066 12.3984 66.3018L14.9927 59.2266ZM7.54688 26.5459L17.0142 54.8467L18.6313 61.4165L14.1504 63.7075L0.741211 26.5459H7.54688ZM52.0869 63.6738C49.5488 63.6738 47.2466 63.2471 45.1802 62.3936C43.1362 61.5176 41.373 60.2935 39.8906 58.7212C38.4307 57.1489 37.3076 55.2847 36.5215 53.1284C35.7354 50.9722 35.3423 48.6138 35.3423 46.0532V44.6382C35.3423 41.6733 35.7803 39.0342 36.6562 36.7207C37.5322 34.3848 38.7227 32.4082 40.2275 30.791C41.7324 29.1738 43.4395 27.9497 45.3486 27.1187C47.2578 26.2876 49.2344 25.8721 51.2783 25.8721C53.8838 25.8721 56.1299 26.3213 58.0166 27.2197C59.9258 28.1182 61.4868 29.376 62.6997 30.9932C63.9126 32.5879 64.811 34.4746 65.395 36.6533C65.979 38.8096 66.271 41.168 66.271 43.7285V46.5249H39.0483V41.4375H60.0381V40.9658C59.9482 39.3486 59.6113 37.7764 59.0273 36.249C58.4658 34.7217 57.5674 33.4639 56.332 32.4756C55.0967 31.4873 53.4121 30.9932 51.2783 30.9932C49.8633 30.9932 48.5605 31.2964 47.3701 31.9028C46.1797 32.4868 45.1577 33.3628 44.3042 34.5308C43.4507 35.6987 42.7881 37.125 42.3164 38.8096C41.8447 40.4941 41.6089 42.437 41.6089 44.6382V46.0532C41.6089 47.7827 41.8447 49.4111 42.3164 50.9385C42.8105 52.4434 43.5181 53.7686 44.439 54.9141C45.3823 56.0596 46.5166 56.958 47.8418 57.6094C49.1895 58.2607 50.7168 58.5864 52.4238 58.5864C54.625 58.5864 56.4893 58.1372 58.0166 57.2388C59.5439 56.3403 60.8804 55.1387 62.0259 53.6338L65.7993 56.6323C65.0132 57.8228 64.0137 58.957 62.8008 60.0352C61.5879 61.1133 60.0942 61.9893 58.3198 62.6631C56.5679 63.3369 54.4902 63.6738 52.0869 63.6738ZM94.7739 53.3306C94.7739 52.4321 94.5718 51.6011 94.1675 50.8374C93.7856 50.0513 92.9883 49.3438 91.7754 48.7148C90.585 48.0635 88.7881 47.502 86.3848 47.0303C84.3633 46.6035 82.5327 46.0981 80.8931 45.5142C79.2759 44.9302 77.8945 44.2227 76.749 43.3916C75.626 42.5605 74.7612 41.5835 74.1548 40.4604C73.5483 39.3374 73.2451 38.0234 73.2451 36.5186C73.2451 35.0811 73.5596 33.7222 74.1885 32.4419C74.8398 31.1616 75.7495 30.0273 76.9175 29.0391C78.1079 28.0508 79.5342 27.2759 81.1963 26.7144C82.8584 26.1528 84.7114 25.8721 86.7554 25.8721C89.6753 25.8721 92.1685 26.3887 94.2349 27.4219C96.3013 28.4551 97.8848 29.8364 98.9854 31.5659C100.086 33.2729 100.636 35.1709 100.636 37.2598H94.4033C94.4033 36.249 94.1001 35.272 93.4937 34.3286C92.9097 33.3628 92.0449 32.5654 90.8994 31.9365C89.7764 31.3076 88.395 30.9932 86.7554 30.9932C85.0259 30.9932 83.6221 31.2627 82.5439 31.8018C81.4883 32.3184 80.7134 32.981 80.2192 33.7896C79.7476 34.5981 79.5117 35.4517 79.5117 36.3501C79.5117 37.0239 79.624 37.6304 79.8486 38.1694C80.0957 38.686 80.5225 39.1689 81.1289 39.6182C81.7354 40.0449 82.5889 40.4492 83.6895 40.8311C84.79 41.2129 86.1938 41.5947 87.9009 41.9766C90.8882 42.6504 93.3477 43.459 95.2793 44.4023C97.2109 45.3457 98.6484 46.5024 99.5918 47.8726C100.535 49.2427 101.007 50.9048 101.007 52.8589C101.007 54.4536 100.67 55.9136 99.9961 57.2388C99.3447 58.564 98.3901 59.7095 97.1323 60.6753C95.897 61.6187 94.4146 62.3599 92.6851 62.8989C90.978 63.4155 89.0576 63.6738 86.9238 63.6738C83.7119 63.6738 80.9941 63.1011 78.7705 61.9556C76.5469 60.8101 74.8623 59.3276 73.7168 57.5083C72.5713 55.689 71.9985 53.7686 71.9985 51.7471H78.2651C78.355 53.4541 78.8491 54.813 79.7476 55.8237C80.646 56.812 81.7466 57.5195 83.0493 57.9463C84.3521 58.3506 85.6436 58.5527 86.9238 58.5527C88.6309 58.5527 90.0571 58.3281 91.2026 57.8789C92.3706 57.4297 93.2578 56.812 93.8643 56.0259C94.4707 55.2397 94.7739 54.3413 94.7739 53.3306ZM4.85156 167.698C4.85156 166.643 5.17725 165.755 5.82861 165.037C6.50244 164.295 7.46826 163.925 8.72607 163.925C9.98389 163.925 10.9385 164.295 11.5898 165.037C12.2637 165.755 12.6006 166.643 12.6006 167.698C12.6006 168.731 12.2637 169.607 11.5898 170.326C10.9385 171.045 9.98389 171.404 8.72607 171.404C7.46826 171.404 6.50244 171.045 5.82861 170.326C5.17725 169.607 4.85156 168.731 4.85156 167.698Z" fill="black"/>
</svg>
